<svg width="417" height="176.456" viewBox="0 0 417 176.456" xmlns="http://www.w3.org/2000/svg"><g fill="none"><path d="M28 64.5C28 84.658 44.342 101 64.5 101S101 84.658 101 64.5 84.658 28 64.5 28 28 44.342 28 64.5M8.478 68H2.826A2.83 2.83 0 0 1 0 65.167a2.83 2.83 0 0 1 2.826-2.834h5.652a2.83 2.83 0 0 1 2.826 2.834A2.83 2.83 0 0 1 8.478 68M24.87 27.767c-.75 0-1.47-.298-1.998-.83l-3.957-3.967a2.838 2.838 0 0 1 1.248-4.78 2.82 2.82 0 0 1 2.748.773l3.957 3.967c.808.81 1.05 2.029.612 3.088a2.83 2.83 0 0 1-2.61 1.749M65 11.333c-.75 0-1.468-.298-1.998-.83a2.84 2.84 0 0 1-.828-2.003V2.833A2.83 2.83 0 0 1 65 0a2.83 2.83 0 0 1 2.826 2.833V8.5c0 .751-.298 1.472-.828 2.003s-1.248.83-1.998.83m40.13 16.434a2.83 2.83 0 0 1-2.61-1.75 2.84 2.84 0 0 1 .612-3.087l3.957-3.967a2.821 2.821 0 0 1 4.767 1.251 2.84 2.84 0 0 1-.771 2.756l-3.957 3.966a2.8 2.8 0 0 1-1.998.83M127.174 68h-5.652a2.83 2.83 0 0 1-2.826-2.833 2.83 2.83 0 0 1 2.826-2.834h5.652A2.83 2.83 0 0 1 130 65.167 2.83 2.83 0 0 1 127.174 68" fill="#EFD358"/><path d="M104.565 130h-79.13C11.412 130 0 118.562 0 104.5S11.412 79 25.435 79c2.295 0 4.587.326 6.845.975C38.178 68.917 49.666 62.009 62.174 62c13.252.002 25.287 7.748 30.804 19.828A25.1 25.1 0 0 1 104.565 79C118.588 79 130 90.438 130 104.5S118.588 130 104.565 130" fill="#E0E0E0"/><path d="M271 32.757A8.76 8.76 0 0 1 279.76 24h128.48a8.76 8.76 0 0 1 8.76 8.757v90.486a8.755 8.755 0 0 1-8.76 8.757H279.76a8.76 8.76 0 0 1-8.76-8.757z" fill="#29B4FF"/><path d="M369.8 73.725c2.933 1.679 2.933 5.872 0 7.55l-35.2 20.135c-2.933 1.678-6.6-.418-6.6-3.775V57.367c0-3.357 3.667-5.454 6.6-3.777z" fill="#7BD1FF"/><path d="M285.395 34A4.4 4.4 0 0 0 281 38.4v5.867c0 2.43 1.968 4.4 4.395 4.4h5.86a4.4 4.4 0 0 0 4.396-4.4V38.4c0-2.43-1.968-4.4-4.395-4.4zm0 23.467a4.4 4.4 0 0 0-3.108 1.288A4.4 4.4 0 0 0 281 61.867v5.866c0 2.43 1.968 4.4 4.395 4.4h5.86a4.4 4.4 0 0 0 4.396-4.4v-5.866c0-2.43-1.968-4.4-4.395-4.4zM281 86.8c0-2.43 1.968-4.4 4.395-4.4h5.86a4.4 4.4 0 0 1 4.395 4.4l.001 5.867a4.4 4.4 0 0 1-1.287 3.11 4.4 4.4 0 0 1-3.108 1.29h-5.86a4.4 4.4 0 0 1-4.396-4.4zm4.395 20.533a4.4 4.4 0 0 0-3.108 1.29 4.4 4.4 0 0 0-1.287 3.109v5.868a4.393 4.393 0 0 0 4.395 4.4h5.86a4.4 4.4 0 0 0 4.396-4.4v-5.867c0-2.43-1.968-4.4-4.395-4.4zM396.745 34a4.4 4.4 0 0 0-4.396 4.4v5.867c0 2.43 1.968 4.4 4.395 4.4h5.86a4.4 4.4 0 0 0 4.396-4.4V38.4c0-2.43-1.968-4.4-4.395-4.4zm0 23.467a4.4 4.4 0 0 0-3.109 1.288 4.4 4.4 0 0 0-1.287 3.112v5.866c0 2.43 1.968 4.4 4.395 4.4h5.86a4.4 4.4 0 0 0 4.396-4.4v-5.866c0-2.43-1.968-4.4-4.395-4.4zM392.348 86.8c0-2.43 1.968-4.4 4.395-4.4h5.86A4.4 4.4 0 0 1 407 86.8l.001 5.867a4.4 4.4 0 0 1-1.287 3.11 4.4 4.4 0 0 1-3.108 1.29h-5.86a4.4 4.4 0 0 1-4.396-4.4zm4.395 20.533a4.4 4.4 0 0 0-3.108 1.29 4.4 4.4 0 0 0-1.287 3.11v5.867a4.393 4.393 0 0 0 4.395 4.4h5.86a4.4 4.4 0 0 0 4.397-4.4v-5.867c0-2.43-1.968-4.4-4.395-4.4z" fill="#09E"/><path d="M236.75 83.25a5.25 5.25 0 0 0 0-10.5h-24.5v-24.5a5.25 5.25 0 0 0-10.5 0v24.5h-24.5a5.25 5.25 0 0 0 0 10.5h24.5v24.5a5.25 5.25 0 0 0 10.5 0v-24.5z" fill="#000"/><path d="m105.92 157.904 3.12 11.688 3.84-11.688h3.744l3.84 11.688 3.12-11.688h4.92l-5.4 18.096h-4.8l-3.552-10.488L111.2 176h-4.8l-5.4-18.096zm32.256 10.152q-.216-.912-.888-1.464t-1.632-.552q-1.008 0-1.644.528t-.804 1.488zm-5.088 2.52q0 2.808 2.64 2.808 1.416 0 2.136-1.152h4.2q-1.272 4.224-6.36 4.224-1.56 0-2.856-.468a6.4 6.4 0 0 1-2.22-1.332 5.9 5.9 0 0 1-1.428-2.064q-.504-1.2-.504-2.688 0-1.536.48-2.772a5.8 5.8 0 0 1 1.368-2.1 6.1 6.1 0 0 1 2.148-1.332q1.26-.468 2.844-.468 1.56 0 2.808.468a5.7 5.7 0 0 1 2.112 1.356q.864.888 1.32 2.172t.456 2.892v.456zm15.648-.768a2.86 2.86 0 0 0 .804 2.016q.372.384.888.6a2.9 2.9 0 0 0 1.116.216 2.8 2.8 0 0 0 1.092-.216 2.6 2.6 0 0 0 .888-.6q.372-.384.6-.888a2.6 2.6 0 0 0 .228-1.08q0-.576-.228-1.092a3 3 0 0 0-.6-.9 2.6 2.6 0 0 0-.888-.6 2.8 2.8 0 0 0-1.092-.216q-.6 0-1.116.216a2.6 2.6 0 0 0-.888.6 3 3 0 0 0-.588.876 2.6 2.6 0 0 0-.216 1.068m5.472-6.12h4.368V176h-4.368v-1.368q-1.392 1.752-3.768 1.752-1.344 0-2.472-.492a6 6 0 0 1-1.968-1.38 6.4 6.4 0 0 1-1.308-2.088 7.1 7.1 0 0 1-.468-2.616q0-1.32.456-2.508a6.5 6.5 0 0 1 1.272-2.076 6 6 0 0 1 1.944-1.404q1.128-.516 2.496-.516 2.304 0 3.816 1.608zm12.168 3.624V176h-4.344v-8.688h-1.44v-3.624h1.44v-3.696h4.344v3.696h2.472v3.624zm4.656-11.232h4.344v9.168q.888-1.08 1.8-1.452t2.136-.372q2.328 0 3.516 1.284t1.188 3.468V176h-4.344v-6.216q0-.936-.144-1.512t-.48-.888q-.576-.504-1.392-.504-1.104 0-1.692.66t-.588 1.884V176h-4.344zm24.936 11.976q-.216-.912-.888-1.464t-1.632-.552q-1.008 0-1.644.528t-.804 1.488zm-5.088 2.52q0 2.808 2.64 2.808 1.416 0 2.136-1.152h4.2q-1.272 4.224-6.36 4.224-1.56 0-2.856-.468a6.4 6.4 0 0 1-2.22-1.332 5.9 5.9 0 0 1-1.428-2.064q-.504-1.2-.504-2.688 0-1.536.48-2.772a5.8 5.8 0 0 1 1.368-2.1 6.1 6.1 0 0 1 2.148-1.332q1.26-.468 2.844-.468 1.56 0 2.808.468a5.7 5.7 0 0 1 2.112 1.356q.864.888 1.32 2.172t.456 2.892v.456zm11.616-6.888h4.344v2.016q.696-1.104 1.704-1.692t2.352-.588h.372q.204 0 .468.048v4.152a4.1 4.1 0 0 0-1.872-.432q-1.512 0-2.268.9t-.756 2.628V176h-4.344zm22.944-5.784 4.368 11.016 4.392-11.016h5.112L231.68 176h-3.744l-7.608-18.096zm20.112 5.784V176h-4.344v-12.312zm-4.632-4.728q0-.504.192-.948a2.5 2.5 0 0 1 1.308-1.308q.444-.192.948-.192t.948.192a2.5 2.5 0 0 1 1.308 1.308q.192.444.192.948t-.192.948a2.5 2.5 0 0 1-1.308 1.308 2.4 2.4 0 0 1-.948.192q-.504 0-.948-.192a2.5 2.5 0 0 1-1.308-1.308 2.4 2.4 0 0 1-.192-.948m11.64 10.848a2.86 2.86 0 0 0 .804 2.016q.372.384.888.6a2.9 2.9 0 0 0 1.116.216 2.8 2.8 0 0 0 1.092-.216 2.6 2.6 0 0 0 .888-.6q.372-.384.6-.888a2.6 2.6 0 0 0 .228-1.08q0-.576-.228-1.092a3 3 0 0 0-.6-.9 2.6 2.6 0 0 0-.888-.6 2.8 2.8 0 0 0-1.092-.216 2.8 2.8 0 0 0-1.092.216 2.6 2.6 0 0 0-.888.6 3.2 3.2 0 0 0-.6.876 2.5 2.5 0 0 0-.228 1.068m5.472-13.728h4.368V176h-4.368v-1.368q-1.392 1.752-3.768 1.752a6 6 0 0 1-4.44-1.896 6.4 6.4 0 0 1-1.308-2.088 7.1 7.1 0 0 1-.468-2.592q0-1.32.444-2.508a6.3 6.3 0 0 1 1.26-2.076 6 6 0 0 1 1.956-1.404q1.14-.516 2.508-.516 2.304 0 3.816 1.608zm16.32 11.976q-.216-.912-.888-1.464t-1.632-.552q-1.008 0-1.644.528t-.804 1.488zm-5.088 2.52q0 2.808 2.64 2.808 1.416 0 2.136-1.152h4.2q-1.272 4.224-6.36 4.224-1.56 0-2.856-.468a6.4 6.4 0 0 1-2.22-1.332 5.9 5.9 0 0 1-1.428-2.064q-.504-1.2-.504-2.688 0-1.536.48-2.772a5.8 5.8 0 0 1 1.368-2.1 6.1 6.1 0 0 1 2.148-1.332q1.26-.468 2.844-.468 1.56 0 2.808.468a5.7 5.7 0 0 1 2.112 1.356q.864.888 1.32 2.172t.456 2.892v.456zm15.72-.792q0 .624.228 1.14t.6.9.888.6a2.8 2.8 0 0 0 1.092.216 2.8 2.8 0 0 0 1.092-.216 2.6 2.6 0 0 0 .888-.6q.372-.384.6-.9a2.7 2.7 0 0 0 .228-1.116q0-.576-.228-1.092a3 3 0 0 0-.6-.9 2.6 2.6 0 0 0-.888-.6 2.8 2.8 0 0 0-1.092-.216 2.8 2.8 0 0 0-1.092.216 2.6 2.6 0 0 0-.888.6 3.1 3.1 0 0 0-.6.888 2.6 2.6 0 0 0-.228 1.08m-4.584-.048q0-1.368.552-2.556t1.536-2.064 2.34-1.38 2.964-.504q1.584 0 2.94.492a7.3 7.3 0 0 1 2.352 1.368 6.1 6.1 0 0 1 1.548 2.088q.552 1.212.552 2.676t-.564 2.676a6.35 6.35 0 0 1-1.548 2.088q-.984.876-2.364 1.356t-2.988.48q-1.584 0-2.928-.48a6.8 6.8 0 0 1-2.316-1.368 6.35 6.35 0 0 1-1.524-2.124q-.552-1.236-.552-2.748" fill="#3E3E3E"/></g></svg>